<svg width="275" height="238" viewBox="0 0 275 238" fill="none" xmlns="http://www.w3.org/2000/svg">
<path d="M5.93834 21.3846H2.54499C1.13943 21.3846 0 22.5295 0 23.9417C0 25.354 1.13943 26.4988 2.54499 26.4988H5.93834C7.3439 26.4988 8.48333 25.354 8.48333 23.9417C8.48333 22.5295 7.3439 21.3846 5.93834 21.3846Z" fill="#122366"/>
<path d="M33.1557 21.3846H29.7624C28.3568 21.3846 27.2173 22.5295 27.2173 23.9417C27.2173 25.354 28.3568 26.4988 29.7624 26.4988H33.1557C34.5612 26.4988 35.7007 25.354 35.7007 23.9417C35.7007 22.5295 34.5612 21.3846 33.1557 21.3846Z" fill="#122366"/>
<path d="M60.373 21.3846H56.9798C55.5742 21.3846 54.4347 22.5295 54.4347 23.9417C54.4347 25.354 55.5742 26.4988 56.9798 26.4988H60.373C61.7786 26.4988 62.9181 25.354 62.9181 23.9417C62.9181 22.5295 61.7786 21.3846 60.373 21.3846Z" fill="#122366"/>
<path d="M87.5904 21.3846H84.1971C82.7916 21.3846 81.6521 22.5295 81.6521 23.9417C81.6521 25.354 82.7916 26.4988 84.1971 26.4988H87.5904C88.996 26.4988 90.1354 25.354 90.1354 23.9417C90.1354 22.5295 88.996 21.3846 87.5904 21.3846Z" fill="#122366"/>
<path d="M114.808 21.3846H111.415C110.009 21.3846 108.869 22.5295 108.869 23.9417C108.869 25.354 110.009 26.4988 111.415 26.4988H114.808C116.213 26.4988 117.353 25.354 117.353 23.9417C117.353 22.5295 116.213 21.3846 114.808 21.3846Z" fill="#122366"/>
<path d="M142.025 21.3846H138.632C137.226 21.3846 136.087 22.5295 136.087 23.9417C136.087 25.354 137.226 26.4988 138.632 26.4988H142.025C143.431 26.4988 144.57 25.354 144.57 23.9417C144.57 22.5295 143.431 21.3846 142.025 21.3846Z" fill="#122366"/>
<path d="M169.243 21.3846H165.849C164.444 21.3846 163.304 22.5295 163.304 23.9417C163.304 25.354 164.444 26.4988 165.849 26.4988H169.243C170.648 26.4988 171.788 25.354 171.788 23.9417C171.788 22.5295 170.648 21.3846 169.243 21.3846Z" fill="#122366"/>
<path d="M196.46 21.3846H193.067C191.661 21.3846 190.522 22.5295 190.522 23.9417C190.522 25.354 191.661 26.4988 193.067 26.4988H196.46C197.865 26.4988 199.005 25.354 199.005 23.9417C199.005 22.5295 197.865 21.3846 196.46 21.3846Z" fill="#122366"/>
<path d="M223.677 21.3846H220.284C218.878 21.3846 217.739 22.5295 217.739 23.9417C217.739 25.354 218.878 26.4988 220.284 26.4988H223.677C225.083 26.4988 226.222 25.354 226.222 23.9417C226.222 22.5295 225.083 21.3846 223.677 21.3846Z" fill="#122366"/>
<path d="M5.93834 42.3814H2.54499C1.13943 42.3814 0 43.5263 0 44.9385C0 46.3507 1.13943 47.4956 2.54499 47.4956H5.93834C7.3439 47.4956 8.48333 46.3507 8.48333 44.9385C8.48333 43.5263 7.3439 42.3814 5.93834 42.3814Z" fill="#122366"/>
<path d="M33.1557 42.3814H29.7624C28.3568 42.3814 27.2173 43.5263 27.2173 44.9385C27.2173 46.3507 28.3568 47.4956 29.7624 47.4956H33.1557C34.5612 47.4956 35.7007 46.3507 35.7007 44.9385C35.7007 43.5263 34.5612 42.3814 33.1557 42.3814Z" fill="#122366"/>
<path d="M60.373 42.3814H56.9798C55.5742 42.3814 54.4347 43.5263 54.4347 44.9385C54.4347 46.3507 55.5742 47.4956 56.9798 47.4956H60.373C61.7786 47.4956 62.9181 46.3507 62.9181 44.9385C62.9181 43.5263 61.7786 42.3814 60.373 42.3814Z" fill="#122366"/>
<path d="M87.5904 42.3814H84.1971C82.7916 42.3814 81.6521 43.5263 81.6521 44.9385C81.6521 46.3507 82.7916 47.4956 84.1971 47.4956H87.5904C88.996 47.4956 90.1354 46.3507 90.1354 44.9385C90.1354 43.5263 88.996 42.3814 87.5904 42.3814Z" fill="#122366"/>
<path d="M114.808 42.3814H111.415C110.009 42.3814 108.869 43.5263 108.869 44.9385C108.869 46.3507 110.009 47.4956 111.415 47.4956H114.808C116.213 47.4956 117.353 46.3507 117.353 44.9385C117.353 43.5263 116.213 42.3814 114.808 42.3814Z" fill="#122366"/>
<path d="M142.025 42.3814H138.632C137.226 42.3814 136.087 43.5263 136.087 44.9385C136.087 46.3507 137.226 47.4956 138.632 47.4956H142.025C143.431 47.4956 144.57 46.3507 144.57 44.9385C144.57 43.5263 143.431 42.3814 142.025 42.3814Z" fill="#122366"/>
<path d="M169.243 42.3814H165.849C164.444 42.3814 163.304 43.5263 163.304 44.9385C163.304 46.3507 164.444 47.4956 165.849 47.4956H169.243C170.648 47.4956 171.788 46.3507 171.788 44.9385C171.788 43.5263 170.648 42.3814 169.243 42.3814Z" fill="#122366"/>
<path d="M196.46 42.3814H193.067C191.661 42.3814 190.522 43.5263 190.522 44.9385C190.522 46.3507 191.661 47.4956 193.067 47.4956H196.46C197.865 47.4956 199.005 46.3507 199.005 44.9385C199.005 43.5263 197.865 42.3814 196.46 42.3814Z" fill="#122366"/>
<path d="M223.677 42.3814H220.284C218.878 42.3814 217.739 43.5263 217.739 44.9385C217.739 46.3507 218.878 47.4956 220.284 47.4956H223.677C225.083 47.4956 226.222 46.3507 226.222 44.9385C226.222 43.5263 225.083 42.3814 223.677 42.3814Z" fill="#122366"/>
<path d="M5.93834 63.3782H2.54499C1.13943 63.3782 0 64.5231 0 65.9353C0 67.3475 1.13943 68.4924 2.54499 68.4924H5.93834C7.3439 68.4924 8.48333 67.3475 8.48333 65.9353C8.48333 64.5231 7.3439 63.3782 5.93834 63.3782Z" fill="#122366"/>
<path d="M33.1557 63.3782H29.7624C28.3568 63.3782 27.2173 64.5231 27.2173 65.9353C27.2173 67.3475 28.3568 68.4924 29.7624 68.4924H33.1557C34.5612 68.4924 35.7007 67.3475 35.7007 65.9353C35.7007 64.5231 34.5612 63.3782 33.1557 63.3782Z" fill="#122366"/>
<path d="M60.373 63.3782H56.9798C55.5742 63.3782 54.4347 64.5231 54.4347 65.9353C54.4347 67.3475 55.5742 68.4924 56.9798 68.4924H60.373C61.7786 68.4924 62.9181 67.3475 62.9181 65.9353C62.9181 64.5231 61.7786 63.3782 60.373 63.3782Z" fill="#146D5A"/>
<path d="M87.5904 63.3782H84.1971C82.7916 63.3782 81.6521 64.5231 81.6521 65.9353C81.6521 67.3475 82.7916 68.4924 84.1971 68.4924H87.5904C88.996 68.4924 90.1354 67.3475 90.1354 65.9353C90.1354 64.5231 88.996 63.3782 87.5904 63.3782Z" fill="#146D5A"/>
<path d="M114.808 63.3782H111.415C110.009 63.3782 108.869 64.5231 108.869 65.9353C108.869 67.3475 110.009 68.4924 111.415 68.4924H114.808C116.213 68.4924 117.353 67.3475 117.353 65.9353C117.353 64.5231 116.213 63.3782 114.808 63.3782Z" fill="#146D5A"/>
<path d="M142.025 63.3782H138.632C137.226 63.3782 136.087 64.5231 136.087 65.9353C136.087 67.3475 137.226 68.4924 138.632 68.4924H142.025C143.431 68.4924 144.57 67.3475 144.57 65.9353C144.57 64.5231 143.431 63.3782 142.025 63.3782Z" fill="#146D5A"/>
<path d="M169.243 63.3782H165.849C164.444 63.3782 163.304 64.5231 163.304 65.9353C163.304 67.3475 164.444 68.4924 165.849 68.4924H169.243C170.648 68.4924 171.788 67.3475 171.788 65.9353C171.788 64.5231 170.648 63.3782 169.243 63.3782Z" fill="#146D5A"/>
<path d="M196.46 63.3782H193.067C191.661 63.3782 190.522 64.5231 190.522 65.9353C190.522 67.3475 191.661 68.4924 193.067 68.4924H196.46C197.865 68.4924 199.005 67.3475 199.005 65.9353C199.005 64.5231 197.865 63.3782 196.46 63.3782Z" fill="#146D5A"/>
<path d="M223.677 63.3782H220.284C218.878 63.3782 217.739 64.5231 217.739 65.9353C217.739 67.3475 218.878 68.4924 220.284 68.4924H223.677C225.083 68.4924 226.222 67.3475 226.222 65.9353C226.222 64.5231 225.083 63.3782 223.677 63.3782Z" fill="#146D5A"/>
<path d="M5.93834 84.375H2.54499C1.13943 84.375 0 85.5198 0 86.9321C0 88.3443 1.13943 89.4891 2.54499 89.4891H5.93834C7.3439 89.4891 8.48333 88.3443 8.48333 86.9321C8.48333 85.5198 7.3439 84.375 5.93834 84.375Z" fill="#122366"/>
<path d="M33.1557 84.375H29.7624C28.3568 84.375 27.2173 85.5198 27.2173 86.9321C27.2173 88.3443 28.3568 89.4891 29.7624 89.4891H33.1557C34.5612 89.4891 35.7007 88.3443 35.7007 86.9321C35.7007 85.5198 34.5612 84.375 33.1557 84.375Z" fill="#122366"/>
<path d="M60.373 84.375H56.9798C55.5742 84.375 54.4347 85.5198 54.4347 86.9321C54.4347 88.3443 55.5742 89.4891 56.9798 89.4891H60.373C61.7786 89.4891 62.9181 88.3443 62.9181 86.9321C62.9181 85.5198 61.7786 84.375 60.373 84.375Z" fill="#146D5A"/>
<path d="M87.5904 84.375H84.1971C82.7916 84.375 81.6521 85.5198 81.6521 86.9321C81.6521 88.3443 82.7916 89.4891 84.1971 89.4891H87.5904C88.996 89.4891 90.1354 88.3443 90.1354 86.9321C90.1354 85.5198 88.996 84.375 87.5904 84.375Z" fill="#1A9177"/>
<path d="M114.808 84.375H111.415C110.009 84.375 108.869 85.5198 108.869 86.9321C108.869 88.3443 110.009 89.4891 111.415 89.4891H114.808C116.213 89.4891 117.353 88.3443 117.353 86.9321C117.353 85.5198 116.213 84.375 114.808 84.375Z" fill="#1A9177"/>
<path d="M142.025 84.375H138.632C137.226 84.375 136.087 85.5198 136.087 86.9321C136.087 88.3443 137.226 89.4891 138.632 89.4891H142.025C143.431 89.4891 144.57 88.3443 144.57 86.9321C144.57 85.5198 143.431 84.375 142.025 84.375Z" fill="#1A9177"/>
<path d="M169.243 84.375H165.849C164.444 84.375 163.304 85.5198 163.304 86.9321C163.304 88.3443 164.444 89.4891 165.849 89.4891H169.243C170.648 89.4891 171.788 88.3443 171.788 86.9321C171.788 85.5198 170.648 84.375 169.243 84.375Z" fill="#1A9177"/>
<path d="M196.46 84.375H193.067C191.661 84.375 190.522 85.5198 190.522 86.9321C190.522 88.3443 191.661 89.4891 193.067 89.4891H196.46C197.865 89.4891 199.005 88.3443 199.005 86.9321C199.005 85.5198 197.865 84.375 196.46 84.375Z" fill="#1A9177"/>
<path d="M223.677 84.375H220.284C218.878 84.375 217.739 85.5198 217.739 86.9321C217.739 88.3443 218.878 89.4891 220.284 89.4891H223.677C225.083 89.4891 226.222 88.3443 226.222 86.9321C226.222 85.5198 225.083 84.375 223.677 84.375Z" fill="#146D5A"/>
<path d="M5.93834 105.372H2.54499C1.13943 105.372 0 106.517 0 107.929C0 109.341 1.13943 110.486 2.54499 110.486H5.93834C7.3439 110.486 8.48333 109.341 8.48333 107.929C8.48333 106.517 7.3439 105.372 5.93834 105.372Z" fill="#122366"/>
<path d="M33.1557 105.372H29.7624C28.3568 105.372 27.2173 106.517 27.2173 107.929C27.2173 109.341 28.3568 110.486 29.7624 110.486H33.1557C34.5612 110.486 35.7007 109.341 35.7007 107.929C35.7007 106.517 34.5612 105.372 33.1557 105.372Z" fill="#122366"/>
<path d="M60.373 105.372H56.9798C55.5742 105.372 54.4347 106.517 54.4347 107.929C54.4347 109.341 55.5742 110.486 56.9798 110.486H60.373C61.7786 110.486 62.9181 109.341 62.9181 107.929C62.9181 106.517 61.7786 105.372 60.373 105.372Z" fill="#146D5A"/>
<path d="M87.5904 105.372H84.1971C82.7916 105.372 81.6521 106.517 81.6521 107.929C81.6521 109.341 82.7916 110.486 84.1971 110.486H87.5904C88.996 110.486 90.1354 109.341 90.1354 107.929C90.1354 106.517 88.996 105.372 87.5904 105.372Z" fill="#1A9177"/>
<path d="M114.808 105.372H111.415C110.009 105.372 108.869 106.517 108.869 107.929C108.869 109.341 110.009 110.486 111.415 110.486H114.808C116.213 110.486 117.353 109.341 117.353 107.929C117.353 106.517 116.213 105.372 114.808 105.372Z" fill="#21B695"/>
<path d="M142.025 105.372H138.632C137.226 105.372 136.087 106.517 136.087 107.929C136.087 109.341 137.226 110.486 138.632 110.486H142.025C143.431 110.486 144.57 109.341 144.57 107.929C144.57 106.517 143.431 105.372 142.025 105.372Z" fill="#21B695"/>
<path d="M169.243 105.372H165.849C164.444 105.372 163.304 106.517 163.304 107.929C163.304 109.341 164.444 110.486 165.849 110.486H169.243C170.648 110.486 171.788 109.341 171.788 107.929C171.788 106.517 170.648 105.372 169.243 105.372Z" fill="#21B695"/>
<path d="M196.46 105.372H193.067C191.661 105.372 190.522 106.517 190.522 107.929C190.522 109.341 191.661 110.486 193.067 110.486H196.46C197.865 110.486 199.005 109.341 199.005 107.929C199.005 106.517 197.865 105.372 196.46 105.372Z" fill="#1A9177"/>
<path d="M223.677 105.372H220.284C218.878 105.372 217.739 106.517 217.739 107.929C217.739 109.341 218.878 110.486 220.284 110.486H223.677C225.083 110.486 226.222 109.341 226.222 107.929C226.222 106.517 225.083 105.372 223.677 105.372Z" fill="#146D5A"/>
<path d="M5.93834 126.369H2.54499C1.13943 126.369 0 127.513 0 128.926C0 130.338 1.13943 131.483 2.54499 131.483H5.93834C7.3439 131.483 8.48333 130.338 8.48333 128.926C8.48333 127.513 7.3439 126.369 5.93834 126.369Z" fill="#122366"/>
<path d="M33.1557 126.369H29.7624C28.3568 126.369 27.2173 127.513 27.2173 128.926C27.2173 130.338 28.3568 131.483 29.7624 131.483H33.1557C34.5612 131.483 35.7007 130.338 35.7007 128.926C35.7007 127.513 34.5612 126.369 33.1557 126.369Z" fill="#122366"/>
<path d="M60.373 126.369H56.9798C55.5742 126.369 54.4347 127.513 54.4347 128.926C54.4347 130.338 55.5742 131.483 56.9798 131.483H60.373C61.7786 131.483 62.9181 130.338 62.9181 128.926C62.9181 127.513 61.7786 126.369 60.373 126.369Z" fill="#146D5A"/>
<path d="M87.5904 126.369H84.1971C82.7916 126.369 81.6521 127.513 81.6521 128.926C81.6521 130.338 82.7916 131.483 84.1971 131.483H87.5904C88.996 131.483 90.1354 130.338 90.1354 128.926C90.1354 127.513 88.996 126.369 87.5904 126.369Z" fill="#1A9177"/>
<path d="M114.808 126.369H111.415C110.009 126.369 108.869 127.513 108.869 128.926C108.869 130.338 110.009 131.483 111.415 131.483H114.808C116.213 131.483 117.353 130.338 117.353 128.926C117.353 127.513 116.213 126.369 114.808 126.369Z" fill="#21B695"/>
<path d="M142.025 126.369H138.632C137.226 126.369 136.087 127.513 136.087 128.926C136.087 130.338 137.226 131.483 138.632 131.483H142.025C143.431 131.483 144.57 130.338 144.57 128.926C144.57 127.513 143.431 126.369 142.025 126.369Z" fill="#27DAB3"/>
<path d="M169.243 126.369H165.849C164.444 126.369 163.304 127.513 163.304 128.926C163.304 130.338 164.444 131.483 165.849 131.483H169.243C170.648 131.483 171.788 130.338 171.788 128.926C171.788 127.513 170.648 126.369 169.243 126.369Z" fill="#21B695"/>
<path d="M196.46 126.369H193.067C191.661 126.369 190.522 127.513 190.522 128.926C190.522 130.338 191.661 131.483 193.067 131.483H196.46C197.865 131.483 199.005 130.338 199.005 128.926C199.005 127.513 197.865 126.369 196.46 126.369Z" fill="#1A9177"/>
<path d="M223.677 126.369H220.284C218.878 126.369 217.739 127.513 217.739 128.926C217.739 130.338 218.878 131.483 220.284 131.483H223.677C225.083 131.483 226.222 130.338 226.222 128.926C226.222 127.513 225.083 126.369 223.677 126.369Z" fill="#146D5A"/>
<path d="M5.93834 147.365H2.54499C1.13943 147.365 0 148.51 0 149.922C0 151.335 1.13943 152.479 2.54499 152.479H5.93834C7.3439 152.479 8.48333 151.335 8.48333 149.922C8.48333 148.51 7.3439 147.365 5.93834 147.365Z" fill="#122366"/>
<path d="M33.1557 147.365H29.7624C28.3568 147.365 27.2173 148.51 27.2173 149.922C27.2173 151.335 28.3568 152.479 29.7624 152.479H33.1557C34.5612 152.479 35.7007 151.335 35.7007 149.922C35.7007 148.51 34.5612 147.365 33.1557 147.365Z" fill="#122366"/>
<path d="M60.373 147.365H56.9798C55.5742 147.365 54.4347 148.51 54.4347 149.922C54.4347 151.335 55.5742 152.479 56.9798 152.479H60.373C61.7786 152.479 62.9181 151.335 62.9181 149.922C62.9181 148.51 61.7786 147.365 60.373 147.365Z" fill="#146D5A"/>
<path d="M87.5904 147.365H84.1971C82.7916 147.365 81.6521 148.51 81.6521 149.922C81.6521 151.335 82.7916 152.479 84.1971 152.479H87.5904C88.996 152.479 90.1354 151.335 90.1354 149.922C90.1354 148.51 88.996 147.365 87.5904 147.365Z" fill="#1A9177"/>
<path d="M114.808 147.365H111.415C110.009 147.365 108.869 148.51 108.869 149.922C108.869 151.335 110.009 152.479 111.415 152.479H114.808C116.213 152.479 117.353 151.335 117.353 149.922C117.353 148.51 116.213 147.365 114.808 147.365Z" fill="#21B695"/>
<path d="M142.025 147.365H138.632C137.226 147.365 136.087 148.51 136.087 149.922C136.087 151.335 137.226 152.479 138.632 152.479H142.025C143.431 152.479 144.57 151.335 144.57 149.922C144.57 148.51 143.431 147.365 142.025 147.365Z" fill="#21B695"/>
<path d="M169.243 147.365H165.849C164.444 147.365 163.304 148.51 163.304 149.922C163.304 151.335 164.444 152.479 165.849 152.479H169.243C170.648 152.479 171.788 151.335 171.788 149.922C171.788 148.51 170.648 147.365 169.243 147.365Z" fill="#21B695"/>
<path d="M196.46 147.365H193.067C191.661 147.365 190.522 148.51 190.522 149.922C190.522 151.335 191.661 152.479 193.067 152.479H196.46C197.865 152.479 199.005 151.335 199.005 149.922C199.005 148.51 197.865 147.365 196.46 147.365Z" fill="#1A9177"/>
<path d="M223.677 147.365H220.284C218.878 147.365 217.739 148.51 217.739 149.922C217.739 151.335 218.878 152.479 220.284 152.479H223.677C225.083 152.479 226.222 151.335 226.222 149.922C226.222 148.51 225.083 147.365 223.677 147.365Z" fill="#146D5A"/>
<path d="M5.93834 168.362H2.54499C1.13943 168.362 0 169.507 0 170.919C0 172.331 1.13943 173.476 2.54499 173.476H5.93834C7.3439 173.476 8.48333 172.331 8.48333 170.919C8.48333 169.507 7.3439 168.362 5.93834 168.362Z" fill="#122366"/>
<path d="M33.1557 168.362H29.7624C28.3568 168.362 27.2173 169.507 27.2173 170.919C27.2173 172.331 28.3568 173.476 29.7624 173.476H33.1557C34.5612 173.476 35.7007 172.331 35.7007 170.919C35.7007 169.507 34.5612 168.362 33.1557 168.362Z" fill="#122366"/>
<path d="M60.373 168.362H56.9798C55.5742 168.362 54.4347 169.507 54.4347 170.919C54.4347 172.331 55.5742 173.476 56.9798 173.476H60.373C61.7786 173.476 62.9181 172.331 62.9181 170.919C62.9181 169.507 61.7786 168.362 60.373 168.362Z" fill="#146D5A"/>
<path d="M87.5904 168.362H84.1971C82.7916 168.362 81.6521 169.507 81.6521 170.919C81.6521 172.331 82.7916 173.476 84.1971 173.476H87.5904C88.996 173.476 90.1354 172.331 90.1354 170.919C90.1354 169.507 88.996 168.362 87.5904 168.362Z" fill="#1A9177"/>
<path d="M114.808 168.362H111.415C110.009 168.362 108.869 169.507 108.869 170.919C108.869 172.331 110.009 173.476 111.415 173.476H114.808C116.213 173.476 117.353 172.331 117.353 170.919C117.353 169.507 116.213 168.362 114.808 168.362Z" fill="#1A9177"/>
<path d="M142.025 168.362H138.632C137.226 168.362 136.087 169.507 136.087 170.919C136.087 172.331 137.226 173.476 138.632 173.476H142.025C143.431 173.476 144.57 172.331 144.57 170.919C144.57 169.507 143.431 168.362 142.025 168.362Z" fill="#1A9177"/>
<path d="M169.243 168.362H165.849C164.444 168.362 163.304 169.507 163.304 170.919C163.304 172.331 164.444 173.476 165.849 173.476H169.243C170.648 173.476 171.788 172.331 171.788 170.919C171.788 169.507 170.648 168.362 169.243 168.362Z" fill="#1A9177"/>
<path d="M196.46 168.362H193.067C191.661 168.362 190.522 169.507 190.522 170.919C190.522 172.331 191.661 173.476 193.067 173.476H196.46C197.865 173.476 199.005 172.331 199.005 170.919C199.005 169.507 197.865 168.362 196.46 168.362Z" fill="#1A9177"/>
<path d="M223.677 168.362H220.284C218.878 168.362 217.739 169.507 217.739 170.919C217.739 172.331 218.878 173.476 220.284 173.476H223.677C225.083 173.476 226.222 172.331 226.222 170.919C226.222 169.507 225.083 168.362 223.677 168.362Z" fill="#146D5A"/>
<path d="M5.93834 189.359H2.54499C1.13943 189.359 0 190.504 0 191.916C0 193.328 1.13943 194.473 2.54499 194.473H5.93834C7.3439 194.473 8.48333 193.328 8.48333 191.916C8.48333 190.504 7.3439 189.359 5.93834 189.359Z" fill="#122366"/>
<path d="M33.1557 189.359H29.7624C28.3568 189.359 27.2173 190.504 27.2173 191.916C27.2173 193.328 28.3568 194.473 29.7624 194.473H33.1557C34.5612 194.473 35.7007 193.328 35.7007 191.916C35.7007 190.504 34.5612 189.359 33.1557 189.359Z" fill="#122366"/>
<path d="M60.373 189.359H56.9798C55.5742 189.359 54.4347 190.504 54.4347 191.916C54.4347 193.328 55.5742 194.473 56.9798 194.473H60.373C61.7786 194.473 62.9181 193.328 62.9181 191.916C62.9181 190.504 61.7786 189.359 60.373 189.359Z" fill="#146D5A"/>
<path d="M87.5904 189.359H84.1971C82.7916 189.359 81.6521 190.504 81.6521 191.916C81.6521 193.328 82.7916 194.473 84.1971 194.473H87.5904C88.996 194.473 90.1354 193.328 90.1354 191.916C90.1354 190.504 88.996 189.359 87.5904 189.359Z" fill="#146D5A"/>
<path d="M114.808 189.359H111.415C110.009 189.359 108.869 190.504 108.869 191.916C108.869 193.328 110.009 194.473 111.415 194.473H114.808C116.213 194.473 117.353 193.328 117.353 191.916C117.353 190.504 116.213 189.359 114.808 189.359Z" fill="#146D5A"/>
<path d="M142.025 189.359H138.632C137.226 189.359 136.087 190.504 136.087 191.916C136.087 193.328 137.226 194.473 138.632 194.473H142.025C143.431 194.473 144.57 193.328 144.57 191.916C144.57 190.504 143.431 189.359 142.025 189.359Z" fill="#146D5A"/>
<path d="M169.243 189.359H165.849C164.444 189.359 163.304 190.504 163.304 191.916C163.304 193.328 164.444 194.473 165.849 194.473H169.243C170.648 194.473 171.788 193.328 171.788 191.916C171.788 190.504 170.648 189.359 169.243 189.359Z" fill="#146D5A"/>
<path d="M196.46 189.359H193.067C191.661 189.359 190.522 190.504 190.522 191.916C190.522 193.328 191.661 194.473 193.067 194.473H196.46C197.865 194.473 199.005 193.328 199.005 191.916C199.005 190.504 197.865 189.359 196.46 189.359Z" fill="#146D5A"/>
<path d="M223.677 189.359H220.284C218.878 189.359 217.739 190.504 217.739 191.916C217.739 193.328 218.878 194.473 220.284 194.473H223.677C225.083 194.473 226.222 193.328 226.222 191.916C226.222 190.504 225.083 189.359 223.677 189.359Z" fill="#146D5A"/>
<path d="M248.065 21.3846H244.672C243.266 21.3846 242.127 22.5295 242.127 23.9417C242.127 25.354 243.266 26.4988 244.672 26.4988H248.065C249.471 26.4988 250.61 25.354 250.61 23.9417C250.61 22.5295 249.471 21.3846 248.065 21.3846Z" fill="#122366"/>
<path d="M248.065 42.3814H244.672C243.266 42.3814 242.127 43.5263 242.127 44.9385C242.127 46.3507 243.266 47.4956 244.672 47.4956H248.065C249.471 47.4956 250.61 46.3507 250.61 44.9385C250.61 43.5263 249.471 42.3814 248.065 42.3814Z" fill="#122366"/>
<path d="M248.065 63.3782H244.672C243.266 63.3782 242.127 64.5231 242.127 65.9353C242.127 67.3475 243.266 68.4924 244.672 68.4924H248.065C249.471 68.4924 250.61 67.3475 250.61 65.9353C250.61 64.5231 249.471 63.3782 248.065 63.3782Z" fill="#122366"/>
<path d="M248.065 84.375H244.672C243.266 84.375 242.127 85.5198 242.127 86.9321C242.127 88.3443 243.266 89.4891 244.672 89.4891H248.065C249.471 89.4891 250.61 88.3443 250.61 86.9321C250.61 85.5198 249.471 84.375 248.065 84.375Z" fill="#122366"/>
<path d="M248.065 105.372H244.672C243.266 105.372 242.127 106.517 242.127 107.929C242.127 109.341 243.266 110.486 244.672 110.486H248.065C249.471 110.486 250.61 109.341 250.61 107.929C250.61 106.517 249.471 105.372 248.065 105.372Z" fill="#122366"/>
<path d="M248.065 126.369H244.672C243.266 126.369 242.127 127.513 242.127 128.926C242.127 130.338 243.266 131.483 244.672 131.483H248.065C249.471 131.483 250.61 130.338 250.61 128.926C250.61 127.513 249.471 126.369 248.065 126.369Z" fill="#122366"/>
<path d="M248.065 147.365H244.672C243.266 147.365 242.127 148.51 242.127 149.922C242.127 151.335 243.266 152.479 244.672 152.479H248.065C249.471 152.479 250.61 151.335 250.61 149.922C250.61 148.51 249.471 147.365 248.065 147.365Z" fill="#122366"/>
<path d="M248.065 168.362H244.672C243.266 168.362 242.127 169.507 242.127 170.919C242.127 172.331 243.266 173.476 244.672 173.476H248.065C249.471 173.476 250.61 172.331 250.61 170.919C250.61 169.507 249.471 168.362 248.065 168.362Z" fill="#122366"/>
<path d="M248.065 189.359H244.672C243.266 189.359 242.127 190.504 242.127 191.916C242.127 193.328 243.266 194.473 244.672 194.473H248.065C249.471 194.473 250.61 193.328 250.61 191.916C250.61 190.504 249.471 189.359 248.065 189.359Z" fill="#122366"/>
<path d="M272.455 21.3846H269.062C267.656 21.3846 266.517 22.5295 266.517 23.9417C266.517 25.354 267.656 26.4988 269.062 26.4988H272.455C273.861 26.4988 275 25.354 275 23.9417C275 22.5295 273.861 21.3846 272.455 21.3846Z" fill="#122366"/>
<path d="M272.455 42.3814H269.062C267.656 42.3814 266.517 43.5263 266.517 44.9385C266.517 46.3507 267.656 47.4956 269.062 47.4956H272.455C273.861 47.4956 275 46.3507 275 44.9385C275 43.5263 273.861 42.3814 272.455 42.3814Z" fill="#122366"/>
<path d="M272.455 63.3782H269.062C267.656 63.3782 266.517 64.5231 266.517 65.9353C266.517 67.3475 267.656 68.4924 269.062 68.4924H272.455C273.861 68.4924 275 67.3475 275 65.9353C275 64.5231 273.861 63.3782 272.455 63.3782Z" fill="#122366"/>
<path d="M272.455 84.375H269.062C267.656 84.375 266.517 85.5198 266.517 86.9321C266.517 88.3443 267.656 89.4891 269.062 89.4891H272.455C273.861 89.4891 275 88.3443 275 86.9321C275 85.5198 273.861 84.375 272.455 84.375Z" fill="#122366"/>
<path d="M272.455 105.372H269.062C267.656 105.372 266.517 106.517 266.517 107.929C266.517 109.341 267.656 110.486 269.062 110.486H272.455C273.861 110.486 275 109.341 275 107.929C275 106.517 273.861 105.372 272.455 105.372Z" fill="#122366"/>
<path d="M272.455 126.369H269.062C267.656 126.369 266.517 127.513 266.517 128.926C266.517 130.338 267.656 131.483 269.062 131.483H272.455C273.861 131.483 275 130.338 275 128.926C275 127.513 273.861 126.369 272.455 126.369Z" fill="#122366"/>
<path d="M272.455 147.365H269.062C267.656 147.365 266.517 148.51 266.517 149.922C266.517 151.335 267.656 152.479 269.062 152.479H272.455C273.861 152.479 275 151.335 275 149.922C275 148.51 273.861 147.365 272.455 147.365Z" fill="#122366"/>
<path d="M272.455 168.362H269.062C267.656 168.362 266.517 169.507 266.517 170.919C266.517 172.331 267.656 173.476 269.062 173.476H272.455C273.861 173.476 275 172.331 275 170.919C275 169.507 273.861 168.362 272.455 168.362Z" fill="#122366"/>
<path d="M272.455 189.359H269.062C267.656 189.359 266.517 190.504 266.517 191.916C266.517 193.328 267.656 194.473 269.062 194.473H272.455C273.861 194.473 275 193.328 275 191.916C275 190.504 273.861 189.359 272.455 189.359Z" fill="#122366"/>
<path d="M272.455 0.0703125H269.062C267.656 0.0703125 266.517 1.21516 266.517 2.6274C266.517 4.03965 267.656 5.18451 269.062 5.18451H272.455C273.861 5.18451 275 4.03965 275 2.6274C275 1.21516 273.861 0.0703125 272.455 0.0703125Z" fill="#122366"/>
<path d="M248.065 0.0703125H244.672C243.266 0.0703125 242.127 1.21516 242.127 2.6274C242.127 4.03965 243.266 5.18451 244.672 5.18451H248.065C249.471 5.18451 250.61 4.03965 250.61 2.6274C250.61 1.21516 249.471 0.0703125 248.065 0.0703125Z" fill="#122366"/>
<path d="M248.065 210.779H244.672C243.266 210.779 242.127 211.924 242.127 213.336C242.127 214.749 243.266 215.894 244.672 215.894H248.065C249.471 215.894 250.61 214.749 250.61 213.336C250.61 211.924 249.471 210.779 248.065 210.779Z" fill="#122366"/>
<path d="M248.065 231.956H244.672C243.266 231.956 242.127 233.101 242.127 234.513C242.127 235.925 243.266 237.07 244.672 237.07H248.065C249.471 237.07 250.61 235.925 250.61 234.513C250.61 233.101 249.471 231.956 248.065 231.956Z" fill="#122366"/>
<path d="M272.455 231.956H269.062C267.656 231.956 266.517 233.101 266.517 234.513C266.517 235.925 267.656 237.07 269.062 237.07H272.455C273.861 237.07 275 235.925 275 234.513C275 233.101 273.861 231.956 272.455 231.956Z" fill="#122366"/>
<path d="M272.455 210.779H269.062C267.656 210.779 266.517 211.924 266.517 213.336C266.517 214.749 267.656 215.894 269.062 215.894H272.455C273.861 215.894 275 214.749 275 213.336C275 211.924 273.861 210.779 272.455 210.779Z" fill="#122366"/>
<path d="M5.93834 0.0703125H2.54499C1.13943 0.0703125 0 1.21516 0 2.6274C0 4.03965 1.13943 5.18451 2.54499 5.18451H5.93834C7.3439 5.18451 8.48333 4.03965 8.48333 2.6274C8.48333 1.21516 7.3439 0.0703125 5.93834 0.0703125Z" fill="#122366"/>
<path d="M33.1557 0.0703125H29.7624C28.3568 0.0703125 27.2173 1.21516 27.2173 2.6274C27.2173 4.03965 28.3568 5.18451 29.7624 5.18451H33.1557C34.5612 5.18451 35.7007 4.03965 35.7007 2.6274C35.7007 1.21516 34.5612 0.0703125 33.1557 0.0703125Z" fill="#122366"/>
<path d="M60.373 0.0703125H56.9798C55.5742 0.0703125 54.4347 1.21516 54.4347 2.6274C54.4347 4.03965 55.5742 5.18451 56.9798 5.18451H60.373C61.7786 5.18451 62.9181 4.03965 62.9181 2.6274C62.9181 1.21516 61.7786 0.0703125 60.373 0.0703125Z" fill="#122366"/>
<path d="M87.5904 0.0703125H84.1971C82.7916 0.0703125 81.6521 1.21516 81.6521 2.6274C81.6521 4.03965 82.7916 5.18451 84.1971 5.18451H87.5904C88.996 5.18451 90.1354 4.03965 90.1354 2.6274C90.1354 1.21516 88.996 0.0703125 87.5904 0.0703125Z" fill="#122366"/>
<path d="M114.808 0.0703125H111.415C110.009 0.0703125 108.869 1.21516 108.869 2.6274C108.869 4.03965 110.009 5.18451 111.415 5.18451H114.808C116.213 5.18451 117.353 4.03965 117.353 2.6274C117.353 1.21516 116.213 0.0703125 114.808 0.0703125Z" fill="#122366"/>
<path d="M142.025 0.0703125H138.632C137.226 0.0703125 136.087 1.21516 136.087 2.6274C136.087 4.03965 137.226 5.18451 138.632 5.18451H142.025C143.431 5.18451 144.57 4.03965 144.57 2.6274C144.57 1.21516 143.431 0.0703125 142.025 0.0703125Z" fill="#122366"/>
<path d="M169.243 0.0703125H165.849C164.444 0.0703125 163.304 1.21516 163.304 2.6274C163.304 4.03965 164.444 5.18451 165.849 5.18451H169.243C170.648 5.18451 171.788 4.03965 171.788 2.6274C171.788 1.21516 170.648 0.0703125 169.243 0.0703125Z" fill="#122366"/>
<path d="M196.46 0.0703125H193.067C191.661 0.0703125 190.522 1.21516 190.522 2.6274C190.522 4.03965 191.661 5.18451 193.067 5.18451H196.46C197.865 5.18451 199.005 4.03965 199.005 2.6274C199.005 1.21516 197.865 0.0703125 196.46 0.0703125Z" fill="#122366"/>
<path d="M223.677 0.0703125H220.284C218.878 0.0703125 217.739 1.21516 217.739 2.6274C217.739 4.03965 218.878 5.18451 220.284 5.18451H223.677C225.083 5.18451 226.222 4.03965 226.222 2.6274C226.222 1.21516 225.083 0.0703125 223.677 0.0703125Z" fill="#122366"/>
<path d="M5.93834 210.779H2.54499C1.13943 210.779 0 211.924 0 213.336C0 214.749 1.13943 215.894 2.54499 215.894H5.93834C7.3439 215.894 8.48333 214.749 8.48333 213.336C8.48333 211.924 7.3439 210.779 5.93834 210.779Z" fill="#122366"/>
<path d="M33.1557 210.779H29.7624C28.3568 210.779 27.2173 211.924 27.2173 213.336C27.2173 214.749 28.3568 215.894 29.7624 215.894H33.1557C34.5612 215.894 35.7007 214.749 35.7007 213.336C35.7007 211.924 34.5612 210.779 33.1557 210.779Z" fill="#122366"/>
<path d="M60.373 210.779H56.9798C55.5742 210.779 54.4347 211.924 54.4347 213.336C54.4347 214.749 55.5742 215.894 56.9798 215.894H60.373C61.7786 215.894 62.9181 214.749 62.9181 213.336C62.9181 211.924 61.7786 210.779 60.373 210.779Z" fill="#122366"/>
<path d="M87.5904 210.779H84.1971C82.7916 210.779 81.6521 211.924 81.6521 213.336C81.6521 214.749 82.7916 215.894 84.1971 215.894H87.5904C88.996 215.894 90.1354 214.749 90.1354 213.336C90.1354 211.924 88.996 210.779 87.5904 210.779Z" fill="#122366"/>
<path d="M114.808 210.779H111.415C110.009 210.779 108.869 211.924 108.869 213.336C108.869 214.749 110.009 215.894 111.415 215.894H114.808C116.213 215.894 117.353 214.749 117.353 213.336C117.353 211.924 116.213 210.779 114.808 210.779Z" fill="#122366"/>
<path d="M142.025 210.779H138.632C137.226 210.779 136.087 211.924 136.087 213.336C136.087 214.749 137.226 215.894 138.632 215.894H142.025C143.431 215.894 144.57 214.749 144.57 213.336C144.57 211.924 143.431 210.779 142.025 210.779Z" fill="#122366"/>
<path d="M169.243 210.779H165.849C164.444 210.779 163.304 211.924 163.304 213.336C163.304 214.749 164.444 215.894 165.849 215.894H169.243C170.648 215.894 171.788 214.749 171.788 213.336C171.788 211.924 170.648 210.779 169.243 210.779Z" fill="#122366"/>
<path d="M196.46 210.779H193.067C191.661 210.779 190.522 211.924 190.522 213.336C190.522 214.749 191.661 215.894 193.067 215.894H196.46C197.865 215.894 199.005 214.749 199.005 213.336C199.005 211.924 197.865 210.779 196.46 210.779Z" fill="#122366"/>
<path d="M223.677 210.779H220.284C218.878 210.779 217.739 211.924 217.739 213.336C217.739 214.749 218.878 215.894 220.284 215.894H223.677C225.083 215.894 226.222 214.749 226.222 213.336C226.222 211.924 225.083 210.779 223.677 210.779Z" fill="#122366"/>
<path d="M5.93834 231.956H2.54499C1.13943 231.956 0 233.101 0 234.513C0 235.925 1.13943 237.07 2.54499 237.07H5.93834C7.3439 237.07 8.48333 235.925 8.48333 234.513C8.48333 233.101 7.3439 231.956 5.93834 231.956Z" fill="#122366"/>
<path d="M33.1557 231.956H29.7624C28.3568 231.956 27.2173 233.101 27.2173 234.513C27.2173 235.925 28.3568 237.07 29.7624 237.07H33.1557C34.5612 237.07 35.7007 235.925 35.7007 234.513C35.7007 233.101 34.5612 231.956 33.1557 231.956Z" fill="#122366"/>
<path d="M60.373 231.956H56.9798C55.5742 231.956 54.4347 233.101 54.4347 234.513C54.4347 235.925 55.5742 237.07 56.9798 237.07H60.373C61.7786 237.07 62.9181 235.925 62.9181 234.513C62.9181 233.101 61.7786 231.956 60.373 231.956Z" fill="#122366"/>
<path d="M87.5904 231.956H84.1971C82.7916 231.956 81.6521 233.101 81.6521 234.513C81.6521 235.925 82.7916 237.07 84.1971 237.07H87.5904C88.996 237.07 90.1354 235.925 90.1354 234.513C90.1354 233.101 88.996 231.956 87.5904 231.956Z" fill="#122366"/>
<path d="M114.808 231.956H111.415C110.009 231.956 108.869 233.101 108.869 234.513C108.869 235.925 110.009 237.07 111.415 237.07H114.808C116.213 237.07 117.353 235.925 117.353 234.513C117.353 233.101 116.213 231.956 114.808 231.956Z" fill="#122366"/>
<path d="M142.025 231.956H138.632C137.226 231.956 136.087 233.101 136.087 234.513C136.087 235.925 137.226 237.07 138.632 237.07H142.025C143.431 237.07 144.57 235.925 144.57 234.513C144.57 233.101 143.431 231.956 142.025 231.956Z" fill="#122366"/>
<path d="M169.243 231.956H165.849C164.444 231.956 163.304 233.101 163.304 234.513C163.304 235.925 164.444 237.07 165.849 237.07H169.243C170.648 237.07 171.788 235.925 171.788 234.513C171.788 233.101 170.648 231.956 169.243 231.956Z" fill="#122366"/>
<path d="M196.46 231.956H193.067C191.661 231.956 190.522 233.101 190.522 234.513C190.522 235.925 191.661 237.07 193.067 237.07H196.46C197.865 237.07 199.005 235.925 199.005 234.513C199.005 233.101 197.865 231.956 196.46 231.956Z" fill="#122366"/>
<path d="M223.677 231.956H220.284C218.878 231.956 217.739 233.101 217.739 234.513C217.739 235.925 218.878 237.07 220.284 237.07H223.677C225.083 237.07 226.222 235.925 226.222 234.513C226.222 233.101 225.083 231.956 223.677 231.956Z" fill="#122366"/>
</svg>
