<svg width="260" height="90" viewBox="0 0 260 90" fill="none" xmlns="http://www.w3.org/2000/svg">
<g clip-path="url(#clip0_3445_16557)">
<mask id="mask0_3445_16557" style="mask-type:luminance" maskUnits="userSpaceOnUse" x="0" y="0" width="260" height="90">
<path d="M259.601 0H0.0605469V89.48H259.601V0Z" fill="white"/>
</mask>
<g mask="url(#mask0_3445_16557)">
<path fill-rule="evenodd" clip-rule="evenodd" d="M31.0202 81.8488C18.6202 76.0188 11.6202 68.4088 12.0102 59.5588C13.1302 34.7488 71.9401 9.28878 142.92 2.88878C164.28 0.958776 184.37 0.978776 201.99 2.61878C181.74 -0.321224 157.3 -0.901224 130.91 1.46878C59.9402 7.87878 1.14015 33.3288 0.0201514 58.1388C-0.529849 70.3188 12.9202 80.1388 35.1502 86.2188L31.0202 81.8488Z" fill="white"/>
<path d="M26.9108 73.5694C23.2008 69.8094 21.4208 65.7194 21.6208 61.3694C22.6608 38.4994 77.1008 15.0494 142.981 9.10937C153.061 8.19937 163.071 7.73937 172.721 7.73937C190.731 7.73937 207.601 9.36937 221.521 12.4494L221.751 11.4994C206.971 7.64937 188.481 5.60938 168.281 5.60938C158.711 5.60938 148.791 6.06937 138.791 6.96937C73.2508 12.8794 19.0708 36.4494 18.0308 59.5194C17.7508 65.8394 21.3408 71.5594 28.7208 76.5194L26.9108 73.5694Z" fill="white"/>
<path d="M84.3109 75.8275C65.6809 75.8275 50.7109 67.1575 50.7109 54.2275C50.7109 41.2975 65.6809 32.6875 84.3109 32.6875C93.1809 32.6875 101.311 34.9475 107.261 38.5275L99.8609 43.7975C96.6109 41.7875 91.6409 39.5275 85.6209 39.5275C77.0009 39.5275 71.4609 43.9175 71.4609 54.2175C71.4609 64.5175 76.9909 68.7875 85.6209 68.7875C91.6409 68.7875 96.6109 66.6575 99.8609 64.6475L107.261 69.9175C101.321 73.5575 93.1809 75.8175 84.3109 75.8175" fill="white"/>
<path d="M168.39 74.5078V49.2078L153.99 74.5078H141.4L125.01 49.2078V74.5078H112.51V34.0078H136.77L152.41 58.3778L166.4 34.0078H187.76V74.5078H168.39Z" fill="white"/>
<path d="M221.26 75.83C207.18 75.83 198.31 71.06 194.9 67.86L202.47 62.96C206.21 65.91 214.19 69.36 221.27 69.36C227.53 69.36 230.63 68.23 230.63 66.28C230.63 62.7 223.23 61.82 215.66 60.19C204.43 57.74 196.05 54.73 196.05 47C196.05 37.46 207.52 32.75 222.01 32.75C232.51 32.75 239.58 34.82 245.61 39.09L238.29 43.74C233.98 40.73 226.41 39.09 222.26 39.09C215.59 39.09 212.98 40.53 212.98 42.42C212.98 45.37 218.84 45.68 228.2 47.76C239.84 50.33 248.54 53.98 248.54 61.82C248.54 70.36 238.2 75.82 221.28 75.82" fill="white"/>
<path d="M48.4995 88.2222C48.3895 88.4922 48.3095 88.7822 48.2795 89.0522C47.7595 89.3222 47.0895 89.4822 46.2895 89.4822C44.0195 89.4822 42.6895 88.0622 42.6895 86.2222C42.6895 83.5222 44.5195 82.4922 46.5695 82.4922C47.2495 82.4922 48.1095 82.7022 48.5595 82.9722C48.4295 83.2922 48.3595 83.6322 48.3395 83.9722H48.1995C47.7095 83.3622 47.2095 83.1022 46.5195 83.1022C45.4795 83.1022 44.2895 84.0122 44.2895 86.0822C44.2895 88.1522 45.4795 88.8822 46.6095 88.8822C47.2395 88.8822 47.9595 88.5922 48.3795 88.1522L48.5095 88.2322L48.4995 88.2222Z" fill="white"/>
<path d="M49.6405 85.3194C49.6405 84.2194 49.6205 83.4694 49.5605 82.6094C50.1405 82.6194 50.7205 82.6594 51.3005 82.6594C52.2605 82.6594 53.0805 82.6394 53.3405 82.6094C53.3205 82.7294 53.3005 82.8494 53.3005 83.0194C53.3005 83.2294 53.3205 83.3094 53.3405 83.4594C52.6005 83.4094 51.4305 83.3394 51.1305 83.3394C51.0805 84.0494 51.0805 84.7594 51.0805 85.4694C51.9305 85.4494 52.5505 85.4294 53.3005 85.3894C53.2605 85.6194 53.2505 85.6994 53.2505 85.8294C53.2505 85.9394 53.2705 86.0294 53.3005 86.2294C52.5605 86.1694 51.8305 86.1394 51.0805 86.1394C51.0805 86.5494 51.0705 86.9694 51.0705 87.3894C51.0705 87.8094 51.0805 88.2194 51.1005 88.6094C51.8305 88.6094 52.5905 88.5694 53.3405 88.4894C53.3205 88.6294 53.3005 88.7194 53.3005 88.9294C53.3005 89.1394 53.3205 89.2294 53.3405 89.3494C52.9905 89.3494 52.5305 89.2994 51.6305 89.2994C50.0405 89.2994 49.7705 89.3294 49.5605 89.3494C49.6205 88.4894 49.6405 87.7394 49.6405 86.6394V85.3094V85.3194Z" fill="white"/>
<path d="M54.6595 82.6059C54.8095 82.6359 54.9495 82.6559 55.0995 82.6559C55.2495 82.6559 55.3895 82.6359 55.5395 82.6059C56.9495 84.1559 58.3395 85.7059 59.7795 87.2559C59.7795 85.6959 59.7795 83.0459 59.7095 82.6059C59.8595 82.6359 59.9995 82.6559 60.1495 82.6559C60.2995 82.6559 60.4395 82.6359 60.5895 82.6059C60.4395 85.4459 60.4395 86.7459 60.4395 89.3459C60.2995 89.3159 60.1795 89.2959 60.0395 89.2959C59.8995 89.2959 59.7795 89.3159 59.6595 89.3459C58.3195 87.7659 56.8995 86.1859 55.3895 84.5959C55.3695 85.3259 55.3695 86.1359 55.3695 86.8659C55.3695 88.4259 55.3995 88.9759 55.4295 89.3359C55.2695 89.3059 55.1195 89.2859 54.9695 89.2859C54.8195 89.2859 54.6695 89.3059 54.5195 89.3359C54.5695 89.0559 54.7195 86.5359 54.7195 84.5359C54.7195 83.6559 54.6795 83.0559 54.6695 82.5859" fill="white"/>
<path d="M63.3708 84.2072C63.3708 83.8372 63.3708 83.4872 63.3408 83.3472C62.9608 83.3472 62.1408 83.4072 61.5508 83.4772C61.5808 83.3272 61.6008 83.1872 61.6008 83.0472C61.6008 82.9072 61.5808 82.7672 61.5508 82.6172C62.4408 82.6472 62.8808 82.6672 64.0908 82.6672C65.3008 82.6672 65.7408 82.6472 66.5708 82.6172C66.5408 82.7672 66.5208 82.8972 66.5208 83.0472C66.5208 83.1972 66.5408 83.3272 66.5708 83.4772C66.0408 83.4072 65.2208 83.3472 64.8308 83.3472C64.8108 83.4872 64.8108 83.8372 64.8108 84.2072V86.6472C64.8108 87.7372 64.8308 88.4972 64.8908 89.3572C64.6808 89.3372 64.4108 89.3072 64.0908 89.3072C63.7708 89.3072 63.5008 89.3372 63.2908 89.3572C63.3508 88.4972 63.3708 87.7472 63.3708 86.6472V84.2072Z" fill="white"/>
<path d="M67.5702 85.3194C67.5702 84.2194 67.5502 83.4694 67.4902 82.6094C68.0702 82.6194 68.6502 82.6594 69.2302 82.6594C70.1902 82.6594 71.0102 82.6394 71.2702 82.6094C71.2502 82.7294 71.2302 82.8494 71.2302 83.0194C71.2302 83.2294 71.2502 83.3094 71.2702 83.4594C70.5302 83.4094 69.3602 83.3394 69.0602 83.3394C69.0102 84.0494 69.0102 84.7594 69.0102 85.4694C69.8602 85.4494 70.4802 85.4294 71.2302 85.3894C71.1902 85.6194 71.1802 85.6994 71.1802 85.8294C71.1802 85.9394 71.2002 86.0294 71.2302 86.2294C70.4902 86.1694 69.7602 86.1394 69.0102 86.1394C69.0102 86.5494 69.0002 86.9694 69.0002 87.3894C69.0002 87.8094 69.0102 88.2194 69.0302 88.6094C69.7602 88.6094 70.5202 88.5694 71.2702 88.4894C71.2502 88.6294 71.2302 88.7194 71.2302 88.9294C71.2302 89.1394 71.2502 89.2294 71.2702 89.3494C70.9202 89.3494 70.4602 89.2994 69.5602 89.2994C67.9702 89.2994 67.7002 89.3294 67.4902 89.3494C67.5502 88.4894 67.5702 87.7394 67.5702 86.6394V85.3094V85.3194Z" fill="white"/>
<path d="M74.0709 86.2494H73.9809V86.6494C73.9809 87.7394 74.0009 88.4994 74.0609 89.3594C73.8509 89.3394 73.5809 89.3094 73.2609 89.3094C72.9409 89.3094 72.6709 89.3394 72.4609 89.3594C72.5209 88.4994 72.5409 87.7494 72.5409 86.6494V85.3194C72.5409 84.2194 72.5209 83.4694 72.4609 82.6094C72.6709 82.6294 72.9409 82.6594 73.2609 82.6594C73.6109 82.6594 74.0309 82.6094 74.7009 82.6094C75.6909 82.6094 76.0509 82.6994 76.3909 82.9394C76.7809 83.2194 77.0209 83.6494 77.0209 84.2294C77.0209 85.1794 76.4709 85.7794 75.5109 86.0294C76.1409 87.1294 76.8809 88.2494 77.5909 89.3494C77.3009 89.3294 77.0009 89.2994 76.7109 89.2994C76.4209 89.2994 76.1109 89.3294 75.8209 89.3494L74.0709 86.2394V86.2494ZM74.0209 83.1694C74.0009 84.0594 73.9909 84.9394 73.9909 85.8294C74.0709 85.8294 74.1409 85.8494 74.2109 85.8494C75.0709 85.8494 75.5409 85.3694 75.5409 84.4494C75.5409 83.2994 75.0909 83.1694 74.0309 83.1694" fill="white"/>
<path d="M81.39 83.9266C81.18 83.3666 80.8 83.0866 80.21 83.0866C79.62 83.0866 79.19 83.4966 79.19 83.9666C79.19 85.4166 82.16 85.0566 82.16 87.2666C82.16 88.5766 81.12 89.4766 79.57 89.4766C78.87 89.4766 78.28 89.2766 78 89.0566C78.13 88.6066 78.21 88.2566 78.28 87.8166H78.47C78.58 88.3866 79.03 88.8666 79.82 88.8666C80.61 88.8666 80.96 88.4166 80.96 87.8666C80.96 86.3866 78.05 86.7866 78.05 84.5666C78.05 83.2166 79.09 82.4766 80.25 82.4766C80.95 82.4766 81.48 82.6666 81.85 82.9566C81.73 83.2566 81.67 83.4966 81.54 83.9266H81.39Z" fill="white"/>
<path d="M86.0194 85.3194C86.0194 84.2194 85.9995 83.4694 85.9395 82.6094C86.5195 82.6194 87.0995 82.6594 87.6795 82.6594C88.6395 82.6594 89.4595 82.6394 89.7195 82.6094C89.6995 82.7294 89.6795 82.8494 89.6795 83.0194C89.6795 83.2294 89.6995 83.3094 89.7195 83.4594C88.9795 83.4094 87.7995 83.3394 87.5095 83.3394C87.4595 84.0494 87.4594 84.7594 87.4594 85.4694C88.3094 85.4494 88.9395 85.4294 89.6795 85.3894C89.6395 85.6194 89.6294 85.6994 89.6294 85.8294C89.6294 85.9394 89.6495 86.0294 89.6795 86.2294C88.9395 86.1694 88.2094 86.1394 87.4594 86.1394V86.6394C87.4594 87.7394 87.4795 88.4894 87.5395 89.3494C87.3295 89.3294 87.0594 89.2994 86.7394 89.2994C86.4194 89.2994 86.1495 89.3294 85.9395 89.3494C85.9995 88.4894 86.0194 87.7394 86.0194 86.6394V85.3094V85.3194Z" fill="white"/>
<path d="M94.2207 82.4922C96.2907 82.4922 97.9207 83.6222 97.9207 85.9822C97.9207 87.9122 96.3707 89.4922 94.1907 89.4922C92.1307 89.4922 90.4707 88.4422 90.4707 85.9922C90.4707 84.0722 91.9607 82.4922 94.2207 82.4922ZM94.1907 83.0422C92.8507 83.0422 92.0707 84.3922 92.0707 86.0722C92.0707 88.1522 93.0307 88.8722 94.1207 88.8722C95.2907 88.8722 96.3207 87.8922 96.3207 85.7622C96.3207 84.0722 95.4507 83.0322 94.1907 83.0322" fill="white"/>
<path d="M100.671 86.2494H100.581V86.6494C100.581 87.7394 100.601 88.4994 100.661 89.3594C100.451 89.3394 100.181 89.3094 99.8605 89.3094C99.5405 89.3094 99.2705 89.3394 99.0605 89.3594C99.1205 88.4994 99.1405 87.7494 99.1405 86.6494V85.3194C99.1405 84.2194 99.1205 83.4694 99.0605 82.6094C99.2705 82.6294 99.5405 82.6594 99.8605 82.6594C100.211 82.6594 100.631 82.6094 101.301 82.6094C102.291 82.6094 102.651 82.6994 102.991 82.9394C103.381 83.2194 103.621 83.6494 103.621 84.2294C103.621 85.1794 103.071 85.7794 102.111 86.0294C102.731 87.1294 103.481 88.2494 104.191 89.3494C103.901 89.3294 103.601 89.2994 103.311 89.2994C103.021 89.2994 102.711 89.3294 102.421 89.3494L100.671 86.2394V86.2494ZM100.611 83.1694C100.591 84.0594 100.581 84.9394 100.581 85.8294C100.661 85.8294 100.731 85.8494 100.801 85.8494C101.661 85.8494 102.131 85.3694 102.131 84.4494C102.131 83.2994 101.681 83.1694 100.621 83.1694" fill="white"/>
<path d="M108.611 84.9172C108.401 86.3972 108.321 87.8772 108.221 89.3572C108.061 89.3272 107.911 89.3072 107.761 89.3072C107.601 89.3072 107.461 89.3272 107.301 89.3572C107.711 87.1072 108.031 84.8672 108.311 82.6172C108.451 82.6472 108.571 82.6672 108.711 82.6672C108.841 82.6672 108.971 82.6472 109.101 82.6172C109.811 84.1772 110.641 85.9072 111.361 87.2872C112.131 85.8272 112.931 84.1672 113.641 82.6172C113.781 82.6472 113.921 82.6672 114.061 82.6672C114.201 82.6672 114.331 82.6472 114.471 82.6172C114.731 84.8672 115.071 87.9872 115.311 89.3572C115.051 89.3272 114.781 89.3072 114.521 89.3072C114.261 89.3072 113.981 89.3272 113.711 89.3572C113.641 87.9972 113.471 86.3372 113.321 84.8272H113.301C112.571 86.3372 111.841 87.8472 111.141 89.3572C111.081 89.3572 111.011 89.3372 110.961 89.3372C110.911 89.3372 110.831 89.3472 110.771 89.3572C110.081 87.8872 109.371 86.3972 108.641 84.9172H108.621H108.611Z" fill="white"/>
<path d="M116.43 85.3194C116.43 84.2194 116.41 83.4694 116.35 82.6094C116.93 82.6194 117.51 82.6594 118.09 82.6594C119.05 82.6594 119.87 82.6394 120.13 82.6094C120.11 82.7294 120.09 82.8494 120.09 83.0194C120.09 83.2294 120.11 83.3094 120.13 83.4594C119.39 83.4094 118.22 83.3394 117.92 83.3394C117.87 84.0494 117.87 84.7594 117.87 85.4694C118.72 85.4494 119.34 85.4294 120.09 85.3894C120.05 85.6194 120.04 85.6994 120.04 85.8294C120.04 85.9394 120.06 86.0294 120.09 86.2294C119.35 86.1694 118.61 86.1394 117.87 86.1394C117.87 86.5494 117.86 86.9694 117.86 87.3894C117.86 87.8094 117.87 88.2194 117.89 88.6094C118.62 88.6094 119.38 88.5694 120.13 88.4894C120.11 88.6294 120.09 88.7194 120.09 88.9294C120.09 89.1394 120.11 89.2294 120.13 89.3494C119.78 89.3494 119.32 89.2994 118.42 89.2994C116.83 89.2994 116.56 89.3294 116.35 89.3494C116.41 88.4894 116.43 87.7394 116.43 86.6394V85.3094V85.3194Z" fill="white"/>
<path d="M121.4 85.3194C121.4 84.2194 121.38 83.4694 121.32 82.6094C121.53 82.6294 121.8 82.6594 122.12 82.6594C122.55 82.6594 123.03 82.6094 123.89 82.6094C126.12 82.6094 127.65 83.3194 127.65 85.7894C127.65 87.9394 126.11 89.3594 124.27 89.3594C123.29 89.3594 122.63 89.3094 122.12 89.3094C121.8 89.3094 121.53 89.3394 121.32 89.3594C121.38 88.4994 121.4 87.7494 121.4 86.6494V85.3194ZM122.84 86.8594C122.84 87.3894 122.84 88.5794 122.85 88.7694C123.05 88.7694 123.31 88.7994 123.71 88.7994C125.18 88.7994 126.1 87.7994 126.1 85.7694C126.1 84.1694 125.21 83.1694 123.86 83.1694C123.39 83.1694 123.15 83.1894 122.84 83.2194C122.83 83.3994 122.83 84.5994 122.83 85.1194V86.8594H122.84Z" fill="white"/>
<path d="M129.041 85.3194C129.041 84.2194 129.021 83.4694 128.961 82.6094C129.171 82.6294 129.441 82.6594 129.761 82.6594C130.081 82.6594 130.341 82.6294 130.561 82.6094C130.501 83.4694 130.481 84.2194 130.481 85.3194V86.6494C130.481 87.7494 130.501 88.4994 130.561 89.3594C130.351 89.3394 130.081 89.3094 129.761 89.3094C129.441 89.3094 129.171 89.3394 128.961 89.3594C129.021 88.4994 129.041 87.7494 129.041 86.6494V85.3194Z" fill="white"/>
<path d="M137.54 88.2222C137.43 88.4922 137.35 88.7822 137.32 89.0522C136.8 89.3222 136.13 89.4822 135.33 89.4822C133.06 89.4822 131.73 88.0622 131.73 86.2222C131.73 83.5222 133.56 82.4922 135.61 82.4922C136.29 82.4922 137.15 82.7022 137.6 82.9722C137.47 83.2922 137.4 83.6322 137.37 83.9722H137.23C136.74 83.3622 136.25 83.1022 135.55 83.1022C134.5 83.1022 133.32 84.0122 133.32 86.0822C133.32 88.1522 134.51 88.8822 135.64 88.8822C136.27 88.8822 136.99 88.5922 137.41 88.1522L137.54 88.2322V88.2222Z" fill="white"/>
<path d="M144.051 89.3525C143.741 89.3325 143.471 89.3025 143.191 89.3025C142.911 89.3025 142.631 89.3325 142.361 89.3525C142.161 88.6925 141.931 88.0125 141.691 87.3525C141.271 87.3425 140.861 87.3325 140.441 87.3325C140.101 87.3325 139.771 87.3325 139.421 87.3525C139.161 88.0125 138.941 88.6825 138.751 89.3525C138.591 89.3325 138.451 89.3025 138.291 89.3025C138.131 89.3025 137.991 89.3325 137.801 89.3525C138.281 88.2725 139.751 84.7925 140.591 82.5625C140.721 82.5825 140.831 82.6125 140.961 82.6125C141.091 82.6125 141.201 82.5825 141.331 82.5625C142.161 84.7925 143.301 87.7625 144.041 89.3525M141.461 86.7725C141.181 85.9825 140.901 85.2125 140.591 84.4525C140.261 85.2125 139.951 85.9925 139.671 86.7725H141.461Z" fill="white"/>
<path d="M146.59 86.2494H146.5V86.6494C146.5 87.7394 146.52 88.4994 146.58 89.3594C146.37 89.3394 146.1 89.3094 145.78 89.3094C145.46 89.3094 145.19 89.3394 144.98 89.3594C145.04 88.4994 145.06 87.7494 145.06 86.6494V85.3194C145.06 84.2194 145.04 83.4694 144.98 82.6094C145.19 82.6294 145.46 82.6594 145.78 82.6594C146.13 82.6594 146.55 82.6094 147.22 82.6094C148.21 82.6094 148.57 82.6994 148.91 82.9394C149.3 83.2194 149.54 83.6494 149.54 84.2294C149.54 85.1794 148.99 85.7794 148.03 86.0294C148.66 87.1294 149.4 88.2494 150.11 89.3494C149.82 89.3294 149.52 89.2994 149.23 89.2994C148.94 89.2994 148.63 89.3294 148.34 89.3494L146.59 86.2394V86.2494ZM146.53 83.1694C146.51 84.0594 146.5 84.9394 146.5 85.8294C146.58 85.8294 146.65 85.8494 146.71 85.8494C147.57 85.8494 148.04 85.3694 148.04 84.4494C148.04 83.2994 147.59 83.1694 146.53 83.1694Z" fill="white"/>
<path d="M150.939 85.3194C150.939 84.2194 150.919 83.4694 150.859 82.6094C151.429 82.6194 152.019 82.6594 152.599 82.6594C153.559 82.6594 154.379 82.6394 154.639 82.6094C154.619 82.7294 154.599 82.8494 154.599 83.0194C154.599 83.2294 154.619 83.3094 154.639 83.4594C153.899 83.4094 152.729 83.3394 152.429 83.3394C152.379 84.0494 152.379 84.7594 152.379 85.4694C153.229 85.4494 153.859 85.4294 154.599 85.3894C154.559 85.6194 154.549 85.6994 154.549 85.8294C154.549 85.9394 154.569 86.0294 154.599 86.2294C153.859 86.1694 153.119 86.1394 152.379 86.1394C152.379 86.5494 152.369 86.9694 152.369 87.3894C152.369 87.8094 152.379 88.2194 152.399 88.6094C153.129 88.6094 153.879 88.5694 154.639 88.4894C154.619 88.6294 154.599 88.7194 154.599 88.9294C154.599 89.1394 154.619 89.2294 154.639 89.3494C154.289 89.3494 153.829 89.2994 152.929 89.2994C151.339 89.2994 151.069 89.3294 150.859 89.3494C150.919 88.4894 150.939 87.7394 150.939 86.6394V85.3094V85.3194Z" fill="white"/>
<path d="M162.191 88.7119C161.601 89.1919 160.761 89.4819 160.001 89.4819C158.771 89.4819 158.141 88.6719 158.141 87.9119C158.141 86.9019 158.841 86.3719 159.901 85.8319C159.481 85.2619 159.191 84.7519 159.191 84.2319C159.191 83.1019 160.131 82.6719 160.991 82.6719C161.901 82.6719 162.571 83.0819 162.571 83.8619C162.571 84.4919 162.181 84.9919 161.321 85.5219C161.821 86.1819 162.341 86.7819 162.861 87.4019C163.191 87.0019 163.621 86.3519 164.021 85.5219C164.201 85.7319 164.381 85.9219 164.561 86.0919C164.131 86.7419 163.681 87.2719 163.201 87.8019C163.621 88.2919 164.211 88.9319 164.651 89.3719C164.171 89.3719 163.811 89.3219 163.451 89.3219C163.191 89.3219 162.921 89.3619 162.651 89.3719L162.181 88.7319L162.191 88.7119ZM160.871 88.7519C161.261 88.7519 161.661 88.6019 161.921 88.3719C161.331 87.6619 160.751 86.9319 160.191 86.2119C159.741 86.5519 159.461 86.8919 159.461 87.3919C159.461 88.0419 159.981 88.7519 160.881 88.7519M161.051 85.1619C161.371 84.9219 161.831 84.4219 161.831 83.8119C161.831 83.3819 161.491 83.1019 161.141 83.1019C160.761 83.1019 160.451 83.3419 160.451 83.8019C160.451 84.2019 160.731 84.7019 161.061 85.1619" fill="white"/>
<path d="M169.181 84.9172C168.971 86.3972 168.891 87.8772 168.791 89.3572C168.631 89.3272 168.481 89.3072 168.331 89.3072C168.171 89.3072 168.031 89.3272 167.871 89.3572C168.281 87.1072 168.601 84.8672 168.881 82.6172C169.021 82.6472 169.141 82.6672 169.281 82.6672C169.411 82.6672 169.551 82.6472 169.671 82.6172C170.381 84.1772 171.211 85.9072 171.931 87.2872C172.701 85.8272 173.501 84.1672 174.211 82.6172C174.351 82.6472 174.491 82.6672 174.631 82.6672C174.771 82.6672 174.901 82.6472 175.041 82.6172C175.291 84.8672 175.641 87.9872 175.881 89.3572C175.621 89.3272 175.351 89.3072 175.091 89.3072C174.831 89.3072 174.551 89.3272 174.281 89.3572C174.211 87.9972 174.041 86.3372 173.891 84.8272H173.871C173.141 86.3372 172.411 87.8472 171.711 89.3572C171.651 89.3572 171.581 89.3372 171.521 89.3372C171.461 89.3372 171.391 89.3472 171.331 89.3572C170.641 87.8872 169.931 86.3972 169.201 84.9172H169.181Z" fill="white"/>
<path d="M177 85.3194C177 84.2194 176.98 83.4694 176.92 82.6094C177.5 82.6194 178.08 82.6594 178.66 82.6594C179.62 82.6594 180.44 82.6394 180.7 82.6094C180.68 82.7294 180.66 82.8494 180.66 83.0194C180.66 83.2294 180.68 83.3094 180.7 83.4594C179.96 83.4094 178.79 83.3394 178.49 83.3394C178.44 84.0494 178.44 84.7594 178.44 85.4694C179.29 85.4494 179.92 85.4294 180.66 85.3894C180.62 85.6194 180.61 85.6994 180.61 85.8294C180.61 85.9394 180.63 86.0294 180.66 86.2294C179.92 86.1694 179.19 86.1394 178.44 86.1394C178.44 86.5494 178.43 86.9694 178.43 87.3894C178.43 87.8094 178.44 88.2194 178.46 88.6094C179.19 88.6094 179.94 88.5694 180.7 88.4894C180.68 88.6294 180.66 88.7194 180.66 88.9294C180.66 89.1394 180.68 89.2294 180.7 89.3494C180.35 89.3494 179.89 89.2994 178.99 89.2994C177.4 89.2994 177.13 89.3294 176.92 89.3494C176.98 88.4894 177 87.7394 177 86.6394V85.3094V85.3194Z" fill="white"/>
<path d="M181.971 85.3194C181.971 84.2194 181.951 83.4694 181.891 82.6094C182.101 82.6294 182.371 82.6594 182.691 82.6594C183.121 82.6594 183.601 82.6094 184.461 82.6094C186.691 82.6094 188.221 83.3194 188.221 85.7894C188.221 87.9394 186.681 89.3594 184.841 89.3594C183.861 89.3594 183.201 89.3094 182.691 89.3094C182.371 89.3094 182.101 89.3394 181.891 89.3594C181.951 88.4994 181.971 87.7494 181.971 86.6494V85.3194ZM183.421 86.8594C183.421 87.3894 183.421 88.5794 183.431 88.7694C183.621 88.7694 183.891 88.7994 184.291 88.7994C185.751 88.7994 186.681 87.7994 186.681 85.7694C186.681 84.1694 185.791 83.1694 184.441 83.1694C183.971 83.1694 183.731 83.1894 183.421 83.2194C183.411 83.3994 183.411 84.5994 183.411 85.1194V86.8594H183.421Z" fill="white"/>
<path d="M189.621 85.3194C189.621 84.2194 189.601 83.4694 189.541 82.6094C189.751 82.6294 190.021 82.6594 190.341 82.6594C190.661 82.6594 190.921 82.6294 191.141 82.6094C191.081 83.4694 191.061 84.2194 191.061 85.3194V86.6494C191.061 87.7494 191.081 88.4994 191.141 89.3594C190.931 89.3394 190.661 89.3094 190.341 89.3094C190.021 89.3094 189.751 89.3394 189.541 89.3594C189.601 88.4994 189.621 87.7494 189.621 86.6494V85.3194Z" fill="white"/>
<path d="M198.121 88.2222C198.011 88.4922 197.931 88.7822 197.901 89.0522C197.381 89.3222 196.711 89.4822 195.911 89.4822C193.641 89.4822 192.301 88.0622 192.301 86.2222C192.301 83.5222 194.131 82.4922 196.181 82.4922C196.861 82.4922 197.721 82.7022 198.171 82.9722C198.041 83.2922 197.971 83.6322 197.951 83.9722H197.811C197.321 83.3622 196.821 83.1022 196.131 83.1022C195.081 83.1022 193.901 84.0122 193.901 86.0822C193.901 88.1522 195.091 88.8822 196.221 88.8822C196.851 88.8822 197.571 88.5922 197.991 88.1522L198.121 88.2322V88.2222Z" fill="white"/>
<path d="M204.621 89.3525C204.311 89.3325 204.031 89.3025 203.761 89.3025C203.491 89.3025 203.201 89.3325 202.931 89.3525C202.731 88.6925 202.501 88.0125 202.261 87.3525C201.841 87.3425 201.431 87.3325 201.011 87.3325C200.671 87.3325 200.341 87.3325 199.991 87.3525C199.731 88.0125 199.511 88.6825 199.331 89.3525C199.171 89.3325 199.031 89.3025 198.871 89.3025C198.711 89.3025 198.571 89.3325 198.381 89.3525C198.861 88.2725 200.321 84.7925 201.171 82.5625C201.301 82.5825 201.411 82.6125 201.541 82.6125C201.671 82.6125 201.781 82.5825 201.911 82.5625C202.741 84.7925 203.891 87.7625 204.631 89.3525M202.041 86.7725C201.761 85.9825 201.481 85.2125 201.171 84.4525C200.841 85.2125 200.531 85.9925 200.251 86.7725H202.041Z" fill="white"/>
<path d="M205.67 85.3194C205.67 84.2194 205.65 83.4694 205.59 82.6094C205.8 82.6294 206.07 82.6594 206.39 82.6594C206.71 82.6594 206.97 82.6294 207.19 82.6094C207.13 83.4694 207.11 84.2194 207.11 85.3194V86.6494C207.11 87.7494 207.13 88.4994 207.19 89.3594C206.98 89.3394 206.71 89.3094 206.39 89.3094C206.07 89.3094 205.8 89.3394 205.59 89.3594C205.65 88.4994 205.67 87.7494 205.67 86.6494V85.3194Z" fill="white"/>
<path d="M208.891 85.3194C208.891 84.2194 208.871 83.4694 208.811 82.6094C209.031 82.6294 209.291 82.6594 209.611 82.6594C210.041 82.6594 210.521 82.6094 211.381 82.6094C213.611 82.6094 215.141 83.3194 215.141 85.7894C215.141 87.9394 213.601 89.3594 211.761 89.3594C210.781 89.3594 210.121 89.3094 209.611 89.3094C209.291 89.3094 209.021 89.3394 208.811 89.3594C208.871 88.4994 208.891 87.7494 208.891 86.6494V85.3194ZM210.331 86.8594C210.331 87.3894 210.331 88.5794 210.331 88.7694C210.531 88.7694 210.791 88.7994 211.191 88.7994C212.651 88.7994 213.581 87.7994 213.581 85.7694C213.581 84.1694 212.691 83.1694 211.341 83.1694C210.871 83.1694 210.631 83.1894 210.321 83.2194C210.321 83.3994 210.321 84.5994 210.321 85.1194V86.8594H210.331Z" fill="white"/>
<path d="M222.089 83.9266C221.879 83.3666 221.499 83.0866 220.909 83.0866C220.319 83.0866 219.889 83.4966 219.889 83.9666C219.889 85.4166 222.859 85.0566 222.859 87.2666C222.859 88.5766 221.819 89.4766 220.269 89.4766C219.569 89.4766 218.979 89.2766 218.689 89.0566C218.819 88.6066 218.909 88.2566 218.969 87.8166H219.149C219.259 88.3866 219.709 88.8666 220.499 88.8666C221.289 88.8666 221.639 88.4166 221.639 87.8666C221.639 86.3866 218.729 86.7866 218.729 84.5666C218.729 83.2166 219.769 82.4766 220.929 82.4766C221.629 82.4766 222.159 82.6666 222.529 82.9566C222.409 83.2566 222.339 83.4966 222.219 83.9266H222.069H222.089Z" fill="white"/>
<path d="M224 85.3194C224 84.2194 223.98 83.4694 223.92 82.6094C224.5 82.6194 225.08 82.6594 225.66 82.6594C226.62 82.6594 227.44 82.6394 227.7 82.6094C227.68 82.7294 227.66 82.8494 227.66 83.0194C227.66 83.2294 227.68 83.3094 227.7 83.4594C226.96 83.4094 225.79 83.3394 225.49 83.3394C225.44 84.0494 225.44 84.7594 225.44 85.4694C226.29 85.4494 226.92 85.4294 227.66 85.3894C227.62 85.6194 227.61 85.6994 227.61 85.8294C227.61 85.9394 227.63 86.0294 227.66 86.2294C226.92 86.1694 226.19 86.1394 225.44 86.1394C225.44 86.5494 225.43 86.9694 225.43 87.3894C225.43 87.8094 225.44 88.2194 225.46 88.6094C226.19 88.6094 226.94 88.5694 227.7 88.4894C227.68 88.6294 227.66 88.7194 227.66 88.9294C227.66 89.1394 227.68 89.2294 227.7 89.3494C227.35 89.3494 226.89 89.2994 225.99 89.2994C224.4 89.2994 224.13 89.3294 223.92 89.3494C223.98 88.4894 224 87.7394 224 86.6394V85.3094V85.3194Z" fill="white"/>
<path d="M230.51 86.2494H230.42V86.6494C230.42 87.7394 230.44 88.4994 230.5 89.3594C230.29 89.3394 230.02 89.3094 229.7 89.3094C229.38 89.3094 229.12 89.3394 228.9 89.3594C228.96 88.4994 228.98 87.7494 228.98 86.6494V85.3194C228.98 84.2194 228.96 83.4694 228.9 82.6094C229.12 82.6294 229.38 82.6594 229.7 82.6594C230.05 82.6594 230.47 82.6094 231.14 82.6094C232.13 82.6094 232.49 82.6994 232.83 82.9394C233.22 83.2194 233.46 83.6494 233.46 84.2294C233.46 85.1794 232.91 85.7794 231.95 86.0294C232.58 87.1294 233.32 88.2494 234.03 89.3494C233.74 89.3294 233.44 89.2994 233.15 89.2994C232.86 89.2994 232.55 89.3294 232.26 89.3494L230.51 86.2394V86.2494ZM230.45 83.1694C230.43 84.0594 230.42 84.9394 230.42 85.8294C230.5 85.8294 230.57 85.8494 230.63 85.8494C231.49 85.8494 231.96 85.3694 231.96 84.4494C231.96 83.2994 231.51 83.1694 230.45 83.1694Z" fill="white"/>
<path d="M239.43 82.6094C239.57 82.6394 239.71 82.6594 239.86 82.6594C240.01 82.6594 240.15 82.6394 240.29 82.6094C239.65 84.1494 238.37 87.1194 237.61 89.3494C237.46 89.3294 237.33 89.2994 237.18 89.2994C237.03 89.2994 236.89 89.3294 236.75 89.3494C236.14 87.6794 234.74 84.0994 234.1 82.6094C234.4 82.6394 234.7 82.6594 234.98 82.6594C235.26 82.6594 235.56 82.6394 235.84 82.6094C236.28 84.0694 236.98 85.8794 237.58 87.5194C238.25 85.8894 238.92 84.1294 239.43 82.6094Z" fill="white"/>
<path d="M241.33 85.3194C241.33 84.2194 241.31 83.4694 241.25 82.6094C241.46 82.6294 241.73 82.6594 242.05 82.6594C242.37 82.6594 242.64 82.6294 242.85 82.6094C242.79 83.4694 242.77 84.2194 242.77 85.3194V86.6494C242.77 87.7494 242.79 88.4994 242.85 89.3594C242.63 89.3394 242.37 89.3094 242.05 89.3094C241.73 89.3094 241.46 89.3394 241.25 89.3594C241.31 88.4994 241.33 87.7494 241.33 86.6494V85.3194Z" fill="white"/>
<path d="M249.83 88.2222C249.72 88.4922 249.64 88.7822 249.61 89.0522C249.09 89.3222 248.42 89.4822 247.62 89.4822C245.35 89.4822 244.01 88.0622 244.01 86.2222C244.01 83.5222 245.84 82.4922 247.89 82.4922C248.57 82.4922 249.43 82.7022 249.88 82.9722C249.75 83.2922 249.69 83.6322 249.66 83.9722H249.52C249.03 83.3622 248.54 83.1022 247.84 83.1022C246.79 83.1022 245.61 84.0122 245.61 86.0822C245.61 88.1522 246.8 88.8822 247.92 88.8822C248.55 88.8822 249.27 88.5922 249.69 88.1522L249.82 88.2322L249.83 88.2222Z" fill="white"/>
<path d="M250.971 85.3194C250.971 84.2194 250.951 83.4694 250.891 82.6094C251.471 82.6194 252.051 82.6594 252.631 82.6594C253.591 82.6594 254.411 82.6394 254.671 82.6094C254.651 82.7294 254.631 82.8494 254.631 83.0194C254.631 83.2294 254.651 83.3094 254.671 83.4594C253.931 83.4094 252.751 83.3394 252.461 83.3394C252.411 84.0494 252.411 84.7594 252.411 85.4694C253.261 85.4494 253.891 85.4294 254.631 85.3894C254.591 85.6194 254.581 85.6994 254.581 85.8294C254.581 85.9394 254.601 86.0294 254.631 86.2294C253.891 86.1694 253.161 86.1394 252.411 86.1394C252.411 86.5494 252.401 86.9694 252.401 87.3894C252.401 87.8094 252.411 88.2194 252.431 88.6094C253.161 88.6094 253.921 88.5694 254.671 88.4894C254.651 88.6294 254.631 88.7194 254.631 88.9294C254.631 89.1394 254.651 89.2294 254.671 89.3494C254.321 89.3494 253.861 89.2994 252.961 89.2994C251.371 89.2994 251.101 89.3294 250.891 89.3494C250.951 88.4894 250.971 87.7394 250.971 86.6394V85.3094V85.3194Z" fill="white"/>
<path d="M258.829 83.9266C258.619 83.3666 258.239 83.0866 257.649 83.0866C257.059 83.0866 256.629 83.4966 256.629 83.9666C256.629 85.4166 259.599 85.0566 259.599 87.2666C259.599 88.5766 258.559 89.4766 257.009 89.4766C256.309 89.4766 255.719 89.2766 255.439 89.0566C255.569 88.6066 255.649 88.2566 255.719 87.8166H255.899C256.009 88.3866 256.459 88.8666 257.249 88.8666C258.039 88.8666 258.389 88.4166 258.389 87.8666C258.389 86.3866 255.479 86.7866 255.479 84.5666C255.479 83.2166 256.519 82.4766 257.679 82.4766C258.379 82.4766 258.909 82.6666 259.279 82.9566C259.159 83.2566 259.099 83.4966 258.969 83.9266H258.819H258.829Z" fill="white"/>
</g>
</g>
<defs>
<clipPath id="clip0_3445_16557">
<rect width="259.6" height="89.48" fill="white"/>
</clipPath>
</defs>
</svg>
